<svg width="16" height="16" fill="none" xmlns="http://www.w3.org/2000/svg"><path d="M1.333 8.005c0-3.9 0-5.774.936-6.674C3.134.5 4.8.5 8.002.5c.417 0 1.249 0 1.665.083.845.17 1.25.334 2.917 2 1.666 1.667 1.835 2.095 2 2.917.083.417.085 2.293.08 2.71-.041 3.767-.061 5.588-.981 6.467-.86.823-2.497.823-5.683.823-3.179 0-4.871 0-5.732-.827-.934-.897-.934-2.767-.934-6.668zm3.334-1.672c0 .46.373.834.833.834h5a.833.833 0 000-1.667h-5a.833.833 0 00-.833.833zm.833 2.5a.833.833 0 000 1.667h3.334a.833.833 0 000-1.667H5.5z" fill="#005BFF"/></svg>