<svg width="33" height="32" fill="none" xmlns="http://www.w3.org/2000/svg"><path fill-rule="evenodd" clip-rule="evenodd" d="M17.504 22.667C18.855 18 19.376 16.03 20.132 12c.75-4 1.406-3.333 1.406 1.334v9.236c0 2.71.106 2.71 2.811 2.71h4.217c1.187 0 1.302-.264.873-1.355L23.562 8.98c-.977-2.483-.82-2.585-3.43-2.051-1.814.37-5.492.693-8.034.885-2.027.152-3.017.853-3.941 2.853C6.85 13.498 4.859 17.855 3.989 20c-1.587 3.915-1.352 5.334 1.352 5.334h8.109c3.378 0 3.662-1.313 4.054-2.667z" fill="#005BFF"/></svg>