<svg width="129" height="56" fill="none" xmlns="http://www.w3.org/2000/svg"><g clip-path="url(#clip0_2018_656)" fill="#070707"><path d="M3.61 33.996v7.73H.56v-15h.11l7.64 8.78 7.62-8.78h.11v15h-3v-7.73l-4.6 5.38h-.26l-4.57-5.38zm39.95 5.2h-6l-1.2 2.53h-3.07l7.19-15h.13l7.17 15h-3.07l-1.15-2.53zm-5.1-2.24h4.1l-2-4.55-2.1 4.55zm29.61 4.77h-3V7.976h3v33.75zm21.42-8.47v8.47h-3.05v-15h.12l9.81 8.88v-8.44h3v15h-.11l-9.77-8.91zm33.62 8.809c-1.77 0-4.61-.49-5.87-2.51l1.91-2.06a5.4 5.4 0 004 1.84c1.88 0 2.62-.88 2.62-1.75s-.51-1.37-2.39-1.86c-3.66-.94-5.63-2-5.63-4.75 0-2.58 2.13-4.15 5.38-4.15 1.77 0 4.08.32 5.26 1.73l-1.72 2.15a5.49 5.49 0 00-3.54-1.3c-1.21 0-2.11.45-2.11 1.5 0 .83.29 1.21 2.33 1.82 2.74.8 5.69 1.39 5.69 4.86-.04 3.02-2.9 4.48-5.93 4.48zM1.56 55.275h-.41v-3.82h.41v3.82zm4.87-2.819v2.82H6v-3.94l2.38 2.94v-2.82h.43v3.94l-2.38-2.94zm7.99 2.909a1.45 1.45 0 01-1.32-.68l.28-.3a1.19 1.19 0 001 .55c.52 0 .89-.23.89-.69 0-.46-.26-.58-.82-.73-.74-.2-1.29-.37-1.29-1.14 0-.6.46-1 1.24-1a1.5 1.5 0 011.19.45l-.27.34a1.21 1.21 0 00-.92-.37c-.52 0-.79.26-.79.58 0 .32.27.53.83.69.56.16 1.28.36 1.28 1.19s-.58 1.11-1.3 1.11zm5.56-3.91h.43v2.24c0 .76.32 1.23 1 1.23.68 0 1-.47 1-1.23v-2.24h.42v2.27c0 1-.55 1.64-1.4 1.64-.85 0-1.41-.6-1.41-1.64l-.04-2.27zm7.58 3.82h-.42v-3.82h1.12c.78 0 1.34.34 1.34 1.22a1.15 1.15 0 01-.65 1.14l.82 1.46h-.5l-.71-1.36h-1v1.36zm.61-1.73c.6 0 1-.19 1-.87 0-.68-.42-.82-1-.82h-.61v1.69h.61zm8.03.861h-1.64l-.34.87h-.44l1.6-3.94 1.61 3.94h-.43l-.36-.87zm-1.53-.36h1.39l-.7-1.77-.69 1.77zm6.89-1.59v2.82h-.43v-3.94l2.43 2.94v-2.82h.43v3.94l-2.43-2.94zm8.34 2.489a1.101 1.101 0 001-.62l.33.25a1.46 1.46 0 01-1.34.79c-1 0-1.64-.74-1.64-2s.65-2 1.63-2a1.47 1.47 0 011.34.77l-.34.27a1.07 1.07 0 00-1-.62c-.68 0-1.2.57-1.2 1.58 0 1.01.54 1.58 1.22 1.58zm5.66-3.49h2.2v.41h-1.81v1.25h1.48v.4h-1.48v1.35h1.83v.41h-2.22v-3.82zm12.51 3.911a1.46 1.46 0 01-1.32-.68l.28-.3a1.19 1.19 0 001 .55c.53 0 .9-.23.9-.69 0-.46-.26-.58-.83-.73-.73-.2-1.28-.37-1.28-1.14 0-.6.46-1 1.23-1a1.49 1.49 0 011.19.45l-.26.34a1.23 1.23 0 00-.93-.37c-.51 0-.79.26-.79.58 0 .32.27.53.83.69.56.16 1.28.36 1.28 1.19s-.57 1.11-1.3 1.11zm8.18-3.501h-1.16v3.41h-.43v-3.41H73.5v-.41h2.75v.41zm4.69 3.41h-.38v-3.82h1.13c.77 0 1.33.34 1.33 1.22a1.15 1.15 0 01-.65 1.14l.83 1.46h-.5l-.75-1.36h-.96l-.05 1.36zm.62-1.73c.59 0 1-.19 1-.87 0-.68-.42-.82-1-.82h-.61v1.69h.61zm8 .861h-1.68l-.34.87h-.44l1.6-3.94 1.6 3.94h-.44l-.3-.87zm-1.53-.36h1.39l-.7-1.77-.69 1.77zm8.65-2.181h-1.12v3.41h-.42v-3.41h-1.2v-.41h2.74v.41zm4.27-.41h2.2v.41h-1.77v1.25h1.48v.4h-1.48v1.35h1.82v.41h-2.25v-3.82zm7.84 2.291v-.37h1.59v.23c0 1.06-.5 1.76-1.48 1.76s-1.63-.74-1.63-2 .66-2 1.63-2a1.468 1.468 0 011.35.76l-.34.28a1.101 1.101 0 00-1-.62c-.68 0-1.19.57-1.19 1.58 0 1.01.51 1.58 1.19 1.58.68 0 1.06-.45 1.06-1.2h-1.18zm6.3 1.529h-.43v-3.82h.43v3.82zm4.47-3.82h2.2v.41h-1.77v1.25h1.48v.4h-1.48v1.35h1.83v.41h-2.26v-3.82zm7.65 3.911a1.459 1.459 0 01-1.33-.68l.28-.3a1.195 1.195 0 001.05.55c.52 0 .89-.23.89-.69 0-.46-.26-.58-.83-.73-.73-.2-1.28-.37-1.28-1.14 0-.6.46-1 1.23-1a1.493 1.493 0 011.19.45l-.26.34a1.221 1.221 0 00-.93-.37c-.51 0-.79.26-.79.58 0 .32.27.53.83.69.56.16 1.28.36 1.28 1.19s-.61 1.11-1.33 1.11zM66.55 4.745a2.07 2.07 0 100-4.14 2.07 2.07 0 000 4.14z"/></g><defs><clipPath id="clip0_2018_656"><path fill="#fff" transform="translate(.56 .605)" d="M0 0h128.44v54.79H0z"/></clipPath></defs></svg>