<svg width="33" height="32" fill="none" xmlns="http://www.w3.org/2000/svg"><path d="M5.667 9.889C5.667 5.863 6.529 5 10.555 5s4.89.863 4.89 4.889-.864 4.889-4.89 4.889-4.888-.863-4.888-4.89zm0 12.222c0-4.026.862-4.889 4.888-4.889s4.89.863 4.89 4.89c0 4.025-.864 4.888-4.89 4.888s-4.888-.863-4.888-4.889zM22.778 5c-4.026 0-4.89.863-4.89 4.889s.864 4.889 4.89 4.889 4.889-.863 4.889-4.89c0-4.025-.863-4.888-4.89-4.888zm-4.889 17.111c0-4.026.863-4.889 4.889-4.889s4.889.863 4.889 4.89c0 4.025-.863 4.888-4.89 4.888-4.025 0-4.888-.863-4.888-4.889z" fill="#005BFF"/></svg>