<svg width="24" height="24" fill="none" xmlns="http://www.w3.org/2000/svg"><path d="M3.375 10.888c5.369-2.258 8.949-3.747 10.74-4.466 5.114-2.053 6.177-2.41 6.87-2.422.152-.002.493.034.713.207a.74.74 0 01.262.481c.025.139.055.454.031.7-.277 2.811-1.476 9.633-2.086 12.781-.259 1.333-.767 1.78-1.259 1.823-1.07.095-1.881-.682-2.917-1.338-1.621-1.025-2.537-1.664-4.11-2.665-1.818-1.156-.64-1.792.396-2.831.272-.272 4.984-4.41 5.075-4.785.011-.047.022-.221-.086-.314-.108-.092-.266-.06-.381-.036-.163.036-2.752 1.688-7.768 4.957-.735.487-1.4.724-1.997.712-.658-.014-1.923-.359-2.863-.654-1.153-.362-2.07-.553-1.99-1.168.041-.32.498-.647 1.37-.982z" fill="#2DA0D7"/></svg>