<svg width="24" height="24" fill="none" xmlns="http://www.w3.org/2000/svg"><path d="M10 6.252C7.478 6.939 6 9 6 12c0 .346.02.68.058 1 .121 1-.058 1-.692 1.211L4.5 14.5c-1.08.36-1.19.5-.787 1.5 1.275 3.17 4.2 5 8.287 5 5.584 0 9-3.416 9-9s-3.416-9-9-9c-.169 0-.335.003-.5.01-.833-.01-.973.155-.833.99l.166 1C11 6 10.923 6 10 6.252zm5.707 3.04a1 1 0 010 1.415l-4 4a1 1 0 01-1.414 0l-2-2a1 1 0 111.414-1.414L11 12.586l3.293-3.293a1 1 0 011.414 0z" fill="#005BFF"/><path d="M8 6a1 1 0 100-2 1 1 0 000 2zM6 8a1 1 0 11-2 0 1 1 0 012 0zm-2 5a1 1 0 100-2 1 1 0 000 2z" fill="#005BFF"/></svg>