<svg width="32" height="32" fill="none" xmlns="http://www.w3.org/2000/svg"><path d="M20.661 2.667h.049c3.494 0 7.287 2.958 7.29 7.33.001 1.754-.68 3.61-2.194 5.483-.344.427-.819 1.042-.409 1.843 1.19 2.326 2.033 5.203 2.209 8.508.055 1.038.053 1.286-1.352 1.354l-1.555.076-.093.005-.066.004c-.793.044-1.153.064-.743-1.308.886-2.965-.902-6.713-5.117-6.713a5.436 5.436 0 00-1.435.163c-1.177.297-1.447-.163-1.403-1.124l.226-4.959c.044-.98.155-1.247 1.324-1.779 1.075-.489 1.521-.633 2.625-.084.915.454 1.843 1.155 2.727 2.074.426.443.81.404 1.112 0 1.028-1.374 1.372-2.57 1.372-3.542-.002-2.818-2.468-4.665-4.518-4.665-.708 0-1.286.008-1.878.188-.555.168-1.201.515-1.909 1.331-1.481 1.71-3.169 5.403-4.548 13.36-.126.727-.471 1.277-1.595 1.096-1.257-.201-1.265-.807-1.14-1.533 1.393-8.036 3.17-12.34 5.154-14.63 1.025-1.182 2.111-1.835 3.203-2.166 1.028-.312 1.989-.312 2.664-.312zM3.807 27.793l7.06.2c1.02.03 1.335 0 1.245-.732-.083-.679-.254-.848-.694-1.056-.598-.283-.544-.465-.4-.946.035-.116.075-.248.112-.403l.203-.848c.244-1.02.078-1.26-1.286-1.62-1.23-.325-1.263-.242-1.616.673-.043.11-.09.233-.145.368l-.114.286c-.478 1.203-.76 1.911-2.286 2.146a8.782 8.782 0 01-.808.067c-1.013.056-2.223.121-2.386 1.052-.116.657.151.785 1.115.813z" fill="#005BFF"/><path d="M18.958 28c2.301 0 3.709-1.407 3.709-3.708 0-2.3-1.408-3.708-3.709-3.708-2.3 0-3.708 1.407-3.708 3.708 0 2.3 1.407 3.708 3.708 3.708zm0-2.583c-.698 0-1.125-.427-1.125-1.125s.427-1.125 1.125-1.125 1.125.427 1.125 1.125-.427 1.125-1.125 1.125z" fill="#005BFF"/></svg>