<svg width="24" height="24" fill="none" xmlns="http://www.w3.org/2000/svg"><path d="M12 21a9 9 0 10-9-9c0 1.92.6 3.698 1.624 5.159l-.806 3.023 3.076-.77A8.958 8.958 0 0012 21zM8.443 6.667c.356-.003.701-.006.932.458.2.401.445 1.09.735 1.912l.004.011c.068.192.173.492.034.69-.141.202-.457.61-.685.873-.059.068-.176.222-.016.474.04.063.074.127.112.198.152.285.36.675 1.21 1.499.858.831 1.934 1.31 2.33 1.47.109.06.368.142.542-.02.08-.074.23-.266.394-.476.193-.247.405-.517.543-.649l.013-.011c.093-.085.24-.22.509-.112.236.095 1.141.53 1.825.86l.371.178c.109.034.267.161.267.416 0 .574-.407 2.273-2.381 2.308-1.975.035-4.354-.998-6.164-2.994-1.875-2.069-2.432-3.451-2.432-4.715 0-1.54 1.078-2.37 1.77-2.37h.087z" fill="#41E45F"/></svg>