<svg width="16" height="16" viewBox="0 0 16 16" fill="none" xmlns="http://www.w3.org/2000/svg">
<path d="M1.3335 8.00522C1.3335 4.10449 1.3335 2.23113 2.26945 1.33141C3.13431 0.500036 4.79992 0.500023 8.0016 0.5C8.41875 0.5 9.25065 0.5 9.66683 0.583261C10.512 0.752336 10.9168 0.916667 12.5835 2.58333C14.2502 4.25 14.4192 4.67846 14.5835 5.5C14.6668 5.91667 14.6691 7.79281 14.6645 8.20948C14.623 11.9772 14.6029 13.7977 13.683 14.6774C12.8229 15.4999 11.1864 15.5 8.00016 15.5C4.82139 15.5 3.12903 15.4999 2.26799 14.6734C1.3335 13.7764 1.3335 11.9059 1.3335 8.00522ZM4.66683 6.33333C4.66683 6.79357 5.03993 7.16667 5.50016 7.16667H10.5002C10.9604 7.16667 11.3335 6.79357 11.3335 6.33333C11.3335 5.8731 10.9604 5.5 10.5002 5.5H5.50016C5.03993 5.5 4.66683 5.8731 4.66683 6.33333ZM5.50016 8.83333C5.03993 8.83333 4.66683 9.20643 4.66683 9.66667C4.66683 10.1269 5.03993 10.5 5.50016 10.5H8.8335C9.29373 10.5 9.66683 10.1269 9.66683 9.66667C9.66683 9.20643 9.29373 8.83333 8.8335 8.83333H5.50016Z" fill="#005BFF"/>
</svg>
