<svg width="33" height="32" viewBox="0 0 33 32" fill="none" xmlns="http://www.w3.org/2000/svg">
<path fill-rule="evenodd" clip-rule="evenodd" d="M17.504 22.667C18.8554 18.0003 19.3764 16.03 20.1323 12.0003C20.8826 8.00033 21.5379 8.66699 21.5379 13.3337C21.5379 18.0003 21.5379 21.3503 21.5379 22.5696C21.5379 25.2807 21.6436 25.2807 24.3493 25.2807C25.9962 25.2807 26.9196 25.2807 28.5664 25.2807C29.7525 25.2807 29.8682 25.0164 29.439 23.9252C27.1438 18.0886 23.5617 8.97958 23.5617 8.97958C22.5855 6.49715 22.7419 6.39469 20.1323 6.92868C18.3178 7.29995 14.6399 7.62194 12.0981 7.81357C10.0709 7.96639 9.08068 8.66699 8.15705 10.667C6.84949 13.4983 4.85931 17.8545 3.98929 20.0003C2.40207 23.9151 2.63729 25.3337 5.34076 25.3337C8.71942 25.3337 10.0709 25.3337 13.4496 25.3337C16.8282 25.3337 17.1117 24.0215 17.504 22.667Z" fill="#005BFF"/>
</svg>
