<svg width="129" height="56" viewBox="0 0 129 56" fill="none" xmlns="http://www.w3.org/2000/svg">
<g clip-path="url(#clip0_2018_656)">
<path d="M3.61006 33.9956V41.7256H0.560059V26.7256H0.670059L8.31006 35.5056L15.9301 26.7256H16.0401V41.7256H13.0401V33.9956L8.44006 39.3756H8.18006L3.61006 33.9956Z" fill="#070707"/>
<path d="M43.56 39.1956H37.56L36.36 41.7256H33.29L40.48 26.7256H40.61L47.78 41.7256H44.71L43.56 39.1956ZM38.46 36.9556H42.56L40.56 32.4056L38.46 36.9556Z" fill="#070707"/>
<path d="M68.0701 41.7256H65.0701V7.97559H68.0701V41.7256Z" fill="#070707"/>
<path d="M89.4899 33.2556V41.7256H86.4399V26.7256H86.5599L96.3699 35.6056V27.1656H99.3699V42.1656H99.2599L89.4899 33.2556Z" fill="#070707"/>
<path d="M123.11 42.0652C121.34 42.0652 118.5 41.5752 117.24 39.5552L119.15 37.4952C119.65 38.0657 120.265 38.5244 120.954 38.8414C121.643 39.1584 122.391 39.3267 123.15 39.3352C125.03 39.3352 125.77 38.4552 125.77 37.5852C125.77 36.7152 125.26 36.2152 123.38 35.7252C119.72 34.7852 117.75 33.7252 117.75 30.9752C117.75 28.3952 119.88 26.8252 123.13 26.8252C124.9 26.8252 127.21 27.1452 128.39 28.5552L126.67 30.7052C125.681 29.8675 124.426 29.4069 123.13 29.4052C121.92 29.4052 121.02 29.8552 121.02 30.9052C121.02 31.7352 121.31 32.1152 123.35 32.7252C126.09 33.5252 129.04 34.1152 129.04 37.5852C129 40.6052 126.14 42.0652 123.11 42.0652Z" fill="#070707"/>
<path d="M1.56015 55.2751H1.15015V51.4551H1.56015V55.2751Z" fill="#070707"/>
<path d="M6.43 52.4559V55.2759H6V51.3359L8.38 54.2759V51.4559H8.81V55.3959L6.43 52.4559Z" fill="#070707"/>
<path d="M14.4201 55.3655C14.1592 55.3816 13.8988 55.327 13.6665 55.2073C13.4341 55.0876 13.2384 54.9073 13.1001 54.6855L13.3801 54.3855C13.4873 54.5536 13.6351 54.6921 13.8099 54.7882C13.9846 54.8843 14.1807 54.9349 14.3801 54.9355C14.9001 54.9355 15.2701 54.7055 15.2701 54.2455C15.2701 53.7855 15.0101 53.6655 14.4501 53.5155C13.7101 53.3155 13.1601 53.1455 13.1601 52.3755C13.1601 51.7755 13.6201 51.3755 14.4001 51.3755C14.6193 51.3587 14.8395 51.3903 15.0452 51.4681C15.2508 51.5458 15.4368 51.6678 15.5901 51.8255L15.3201 52.1655C15.2016 52.0423 15.0583 51.9457 14.8997 51.8819C14.7412 51.8181 14.5709 51.7887 14.4001 51.7955C13.8801 51.7955 13.6101 52.0555 13.6101 52.3755C13.6101 52.6955 13.8801 52.9055 14.4401 53.0655C15.0001 53.2255 15.7201 53.4255 15.7201 54.2555C15.7201 55.0855 15.1401 55.3655 14.4201 55.3655Z" fill="#070707"/>
<path d="M19.98 51.4551H20.41V53.6951C20.41 54.4551 20.73 54.9251 21.41 54.9251C22.09 54.9251 22.41 54.4551 22.41 53.6951V51.4551H22.83V53.7251C22.83 54.7251 22.28 55.3651 21.43 55.3651C20.58 55.3651 20.02 54.7651 20.02 53.7251L19.98 51.4551Z" fill="#070707"/>
<path d="M27.5601 55.2751H27.1401V51.4551H28.2601C29.0401 51.4551 29.6001 51.7951 29.6001 52.6751C29.621 52.9087 29.5699 53.1431 29.4537 53.3469C29.3375 53.5507 29.1618 53.714 28.9501 53.8151L29.7701 55.2751H29.2701L28.5601 53.9151H28.2901H27.5601V55.2751ZM28.1701 53.5451C28.7701 53.5451 29.1701 53.3551 29.1701 52.6751C29.1701 51.9951 28.7501 51.8551 28.1701 51.8551H27.5601V53.5451H28.1701Z" fill="#070707"/>
<path d="M36.2 54.4059H34.56L34.22 55.2759H33.78L35.38 51.3359L36.99 55.2759H36.56L36.2 54.4059ZM34.67 54.0459H36.06L35.36 52.2759L34.67 54.0459Z" fill="#070707"/>
<path d="M41.5601 52.4559V55.2759H41.1301V51.3359L43.5601 54.2759V51.4559H43.9901V55.3959L41.5601 52.4559Z" fill="#070707"/>
<path d="M49.9 54.945C50.1083 54.9469 50.3128 54.8897 50.4899 54.78C50.6669 54.6702 50.8091 54.5124 50.9 54.325L51.23 54.575C51.1038 54.8196 50.9111 55.0236 50.674 55.1633C50.4369 55.3031 50.1651 55.373 49.89 55.365C48.89 55.365 48.25 54.625 48.25 53.365C48.25 52.105 48.9 51.365 49.88 51.365C50.1528 51.3563 50.4227 51.4237 50.6594 51.5597C50.896 51.6957 51.0902 51.8949 51.22 52.135L50.88 52.405C50.7921 52.2153 50.6506 52.0554 50.4729 51.9452C50.2951 51.835 50.089 51.7793 49.88 51.785C49.2 51.785 48.68 52.355 48.68 53.365C48.68 54.375 49.22 54.945 49.9 54.945Z" fill="#070707"/>
<path d="M55.5601 51.4551H57.7601V51.8651H55.9501V53.1151H57.4301V53.5151H55.9501V54.8651H57.7801V55.2751H55.5601V51.4551Z" fill="#070707"/>
<path d="M68.07 55.3658C67.8093 55.3809 67.5493 55.3257 67.3171 55.2061C67.0849 55.0865 66.8891 54.9069 66.75 54.6858L67.03 54.3858C67.1372 54.5539 67.285 54.6924 67.4598 54.7885C67.6345 54.8846 67.8306 54.9353 68.03 54.9358C68.56 54.9358 68.93 54.7058 68.93 54.2458C68.93 53.7858 68.67 53.6658 68.1 53.5158C67.37 53.3158 66.82 53.1458 66.82 52.3758C66.82 51.7758 67.28 51.3758 68.05 51.3758C68.2693 51.3583 68.4897 51.3896 68.6954 51.4674C68.9012 51.5452 69.0872 51.6676 69.24 51.8258L68.98 52.1658C68.8596 52.0424 68.7146 51.9457 68.5543 51.8819C68.3941 51.8182 68.2223 51.7888 68.05 51.7958C67.54 51.7958 67.26 52.0558 67.26 52.3758C67.26 52.6958 67.53 52.9058 68.09 53.0658C68.65 53.2258 69.37 53.4258 69.37 54.2558C69.37 55.0858 68.8 55.3658 68.07 55.3658Z" fill="#070707"/>
<path d="M76.25 51.8651H75.09V55.2751H74.66V51.8651H73.5V51.4551H76.25V51.8651Z" fill="#070707"/>
<path d="M80.9401 55.2751H80.5601V51.4551H81.6901C82.4601 51.4551 83.0201 51.7951 83.0201 52.6751C83.0409 52.9087 82.9898 53.1431 82.8736 53.3469C82.7574 53.5507 82.5817 53.714 82.3701 53.8151L83.2001 55.2751H82.7001L81.9501 53.9151H81.6901H80.9901L80.9401 55.2751ZM81.5601 53.5451C82.1501 53.5451 82.5601 53.3551 82.5601 52.6751C82.5601 51.9951 82.1401 51.8551 81.5601 51.8551H80.9501V53.5451H81.5601Z" fill="#070707"/>
<path d="M89.5601 54.4059H87.8801L87.5401 55.2759H87.1001L88.7001 51.3359L90.3001 55.2759H89.8601L89.5601 54.4059ZM88.0301 54.0459H89.4201L88.7201 52.2759L88.0301 54.0459Z" fill="#070707"/>
<path d="M96.6799 51.8651H95.5599V55.2751H95.1399V51.8651H93.9399V51.4551H96.6799V51.8651Z" fill="#070707"/>
<path d="M100.95 51.4551H103.15V51.8651H101.38V53.1151H102.86V53.5151H101.38V54.8651H103.2V55.2751H100.95V51.4551Z" fill="#070707"/>
<path d="M108.79 53.7456V53.3756H110.38V53.6056C110.38 54.6656 109.88 55.3656 108.9 55.3656C107.92 55.3656 107.27 54.6256 107.27 53.3656C107.27 52.1056 107.93 51.3656 108.9 51.3656C109.173 51.354 109.445 51.419 109.683 51.5533C109.922 51.6876 110.118 51.8858 110.25 52.1256L109.91 52.4056C109.819 52.2182 109.677 52.0604 109.5 51.9506C109.323 51.8409 109.118 51.7836 108.91 51.7856C108.23 51.7856 107.72 52.3556 107.72 53.3656C107.72 54.3756 108.23 54.9456 108.91 54.9456C109.59 54.9456 109.97 54.4956 109.97 53.7456H108.79Z" fill="#070707"/>
<path d="M115.09 55.2751H114.66V51.4551H115.09V55.2751Z" fill="#070707"/>
<path d="M119.56 51.4551H121.76V51.8651H119.99V53.1151H121.47V53.5151H119.99V54.8651H121.82V55.2751H119.56V51.4551Z" fill="#070707"/>
<path d="M127.21 55.3658C126.948 55.3827 126.686 55.3285 126.452 55.2088C126.217 55.0891 126.02 54.9084 125.88 54.6858L126.16 54.3858C126.272 54.5612 126.428 54.7043 126.612 54.8008C126.796 54.8973 127.002 54.9439 127.21 54.9358C127.73 54.9358 128.1 54.7058 128.1 54.2458C128.1 53.7858 127.84 53.6658 127.27 53.5158C126.54 53.3158 125.99 53.1458 125.99 52.3758C125.99 51.7758 126.45 51.3758 127.22 51.3758C127.439 51.3583 127.66 51.3896 127.866 51.4674C128.071 51.5452 128.257 51.6676 128.41 51.8258L128.15 52.1658C128.03 52.0424 127.885 51.9457 127.724 51.8819C127.564 51.8182 127.392 51.7888 127.22 51.7958C126.71 51.7958 126.43 52.0558 126.43 52.3758C126.43 52.6958 126.7 52.9058 127.26 53.0658C127.82 53.2258 128.54 53.4258 128.54 54.2558C128.54 55.0858 127.93 55.3658 127.21 55.3658Z" fill="#070707"/>
<path d="M66.55 4.74547C67.6932 4.74547 68.62 3.8187 68.62 2.67547C68.62 1.53224 67.6932 0.605469 66.55 0.605469C65.4068 0.605469 64.48 1.53224 64.48 2.67547C64.48 3.8187 65.4068 4.74547 66.55 4.74547Z" fill="#070707"/>
</g>
<defs>
<clipPath id="clip0_2018_656">
<rect width="128.44" height="54.79" fill="white" transform="translate(0.560059 0.605469)"/>
</clipPath>
</defs>
</svg>
