<svg width="33" height="32" viewBox="0 0 33 32" fill="none" xmlns="http://www.w3.org/2000/svg">
<path d="M5.6665 9.88889C5.6665 5.86289 6.52939 5 10.5554 5C14.5814 5 15.4443 5.86289 15.4443 9.88889C15.4443 13.9149 14.5814 14.7778 10.5554 14.7778C6.52939 14.7778 5.6665 13.9149 5.6665 9.88889Z" fill="#005BFF"/>
<path d="M5.6665 22.1111C5.6665 18.0851 6.52939 17.2222 10.5554 17.2222C14.5814 17.2222 15.4443 18.0851 15.4443 22.1111C15.4443 26.1371 14.5814 27 10.5554 27C6.52939 27 5.6665 26.1371 5.6665 22.1111Z" fill="#005BFF"/>
<path d="M22.7776 5C18.7516 5 17.8887 5.86289 17.8887 9.88889C17.8887 13.9149 18.7516 14.7778 22.7776 14.7778C26.8036 14.7778 27.6665 13.9149 27.6665 9.88889C27.6665 5.86289 26.8036 5 22.7776 5Z" fill="#005BFF"/>
<path d="M17.8887 22.1111C17.8887 18.0851 18.7516 17.2222 22.7776 17.2222C26.8036 17.2222 27.6665 18.0851 27.6665 22.1111C27.6665 26.1371 26.8036 27 22.7776 27C18.7516 27 17.8887 26.1371 17.8887 22.1111Z" fill="#005BFF"/>
</svg>
