<svg width="24" height="24" viewBox="0 0 24 24" fill="none" xmlns="http://www.w3.org/2000/svg">
<path d="M10 6.25176C7.47833 6.93939 6 9.00046 6 12C6 12.346 6.01968 12.6796 6.05836 13C6.1791 14 6 14 5.36562 14.2115L4.5 14.5C3.41915 14.8603 3.31047 15 3.71262 16C4.98756 19.1703 7.91303 21 12 21C17.5842 21 21 17.5842 21 12C21 6.4158 17.5842 3 12 3C11.8313 3 11.6647 3.00312 11.5 3.00931C10.6667 3 10.5274 3.1647 10.6667 4C10.7059 4.23525 10.7706 4.62366 10.8333 5C11 6 10.9232 6 10 6.25176ZM15.7071 9.29289C16.0976 9.68342 16.0976 10.3166 15.7071 10.7071L11.7071 14.7071C11.3166 15.0976 10.6834 15.0976 10.2929 14.7071L8.29289 12.7071C7.90237 12.3166 7.90237 11.6834 8.29289 11.2929C8.68342 10.9024 9.31658 10.9024 9.70711 11.2929L11 12.5858L14.2929 9.29289C14.6834 8.90237 15.3166 8.90237 15.7071 9.29289Z" fill="#005BFF"/>
<path d="M8 6C8.55229 6 9 5.55228 9 5C9 4.44772 8.55229 4 8 4C7.44772 4 7 4.44772 7 5C7 5.55228 7.44772 6 8 6Z" fill="#005BFF"/>
<path d="M6 8C6 8.55229 5.55228 9 5 9C4.44772 9 4 8.55229 4 8C4 7.44772 4.44772 7 5 7C5.55228 7 6 7.44772 6 8Z" fill="#005BFF"/>
<path d="M4 13C4.55228 13 5 12.5523 5 12C5 11.4477 4.55228 11 4 11C3.44772 11 3 11.4477 3 12C3 12.5523 3.44772 13 4 13Z" fill="#005BFF"/>
</svg>
