<svg width="32" height="32" viewBox="0 0 32 32" fill="none" xmlns="http://www.w3.org/2000/svg">
<path d="M20.6614 2.667L20.7098 2.66701C24.2038 2.66701 27.9965 5.62469 27.9998 9.99649C28.0012 11.7513 27.3196 13.6062 25.8061 15.4805C25.4617 15.9071 24.987 16.5216 25.3971 17.3235C26.5862 19.6489 27.4301 22.5256 27.6059 25.8308C27.6612 26.8691 27.6586 27.1168 26.2539 27.1854L24.6989 27.2613L24.6059 27.2661L24.5401 27.2698C23.747 27.3138 23.3867 27.3337 23.7967 25.9615C24.6825 22.9968 22.8953 19.2492 18.6795 19.2492C18.1932 19.2395 17.7105 19.295 17.2448 19.4122C16.0676 19.7085 15.7983 19.2492 15.842 18.2879L16.0676 13.3295C16.1122 12.3495 16.2231 12.0825 17.3922 11.5503C18.4666 11.0613 18.9131 10.9174 20.0168 11.4658C20.9317 11.9203 21.8601 12.6209 22.7435 13.5396C23.1698 13.983 23.5532 13.9436 23.8557 13.5396C24.8838 12.1661 25.2285 10.9691 25.2278 9.99846C25.2256 7.17973 22.76 5.33263 20.7098 5.33263C20.0016 5.33263 19.4245 5.34063 18.8316 5.52067C18.2772 5.68903 17.6308 6.03616 16.9235 6.85231C15.4417 8.5622 13.7541 12.2551 12.3748 20.2129C12.249 20.939 11.9036 21.4886 10.7798 21.3085C9.52252 21.107 9.51466 20.5008 9.6405 19.7747C11.0333 11.7385 12.8107 7.43442 14.794 5.14583C15.8192 3.96273 16.9054 3.31023 17.9968 2.97878C19.025 2.66655 19.9857 2.66682 20.6614 2.667Z" fill="#005BFF"/>
<path d="M3.80719 27.7931L10.8666 27.993C11.8869 28.0231 12.2022 27.993 12.1122 27.2613C12.0286 26.5822 11.858 26.4133 11.4184 26.2052C10.8195 25.9217 10.8741 25.7398 11.0184 25.2589C11.053 25.1435 11.0928 25.011 11.13 24.8557L11.3327 24.0081C11.577 22.9873 11.411 22.7479 10.0469 22.3879C8.81635 22.0631 8.78431 22.146 8.43079 23.0609C8.38816 23.1713 8.34085 23.2937 8.28621 23.429C8.2465 23.5273 8.20862 23.6226 8.17189 23.715C7.69375 24.9183 7.41241 25.6264 5.88623 25.8612C5.65438 25.8969 5.37473 25.9122 5.07834 25.9283C4.06452 25.9836 2.8547 26.0495 2.69155 26.9804C2.57642 27.6373 2.84314 27.7646 3.80719 27.7931Z" fill="#005BFF"/>
<path d="M18.9582 28.0003C21.2591 28.0003 22.6665 26.5929 22.6665 24.292C22.6665 21.9911 21.2591 20.5837 18.9582 20.5837C16.6573 20.5837 15.2498 21.9911 15.2498 24.292C15.2498 26.5929 16.6573 28.0003 18.9582 28.0003ZM18.9582 25.417C18.2601 25.417 17.8332 24.99 17.8332 24.292C17.8332 23.594 18.2601 23.167 18.9582 23.167C19.6562 23.167 20.0832 23.594 20.0832 24.292C20.0832 24.99 19.6562 25.417 18.9582 25.417Z" fill="#005BFF"/>
</svg>
