<svg width="24" height="24" viewBox="0 0 24 24" fill="none" xmlns="http://www.w3.org/2000/svg">
<path d="M12 21C16.9706 21 21 16.9706 21 12C21 7.02944 16.9706 3 12 3C7.02944 3 3 7.02944 3 12C3 13.9192 3.60069 15.698 4.62432 17.1588L3.81818 20.1818L6.89449 19.4127C8.34516 20.4138 10.1041 21 12 21ZM8.44291 6.66737C8.7994 6.66428 9.1442 6.6613 9.37502 7.12492C9.57473 7.52606 9.82033 8.21476 10.1102 9.03747L10.114 9.04814C10.1817 9.24003 10.2874 9.53962 10.1485 9.7382C10.007 9.94049 9.69142 10.3476 9.46291 10.6112C9.40437 10.6788 9.28707 10.8333 9.44693 11.0852C9.48667 11.1479 9.52097 11.212 9.55876 11.2827C9.711 11.5675 9.91993 11.9583 10.7696 12.782C11.6272 13.6133 12.7031 14.0919 13.0999 14.2511C13.2077 14.3122 13.4668 14.3941 13.6406 14.2323C13.7206 14.1579 13.8711 13.9656 14.0353 13.7559C14.2282 13.5095 14.4398 13.2391 14.5781 13.1073C14.5823 13.1036 14.5866 13.0996 14.591 13.0956C14.6835 13.0108 14.8301 12.8764 15.0996 12.9843C15.3356 13.0788 16.2411 13.5145 16.925 13.8436C17.0595 13.9084 17.1854 13.9689 17.296 14.022C17.4047 14.0565 17.5625 14.1834 17.5625 14.4377C17.5625 15.0116 17.1563 16.7108 15.1816 16.746C13.207 16.7811 10.8285 15.7484 9.01831 13.7521C7.14259 11.6835 6.58594 10.3007 6.58594 9.03747C6.58594 7.49609 7.66407 6.66787 8.35551 6.66787C8.38468 6.66787 8.41384 6.66762 8.44291 6.66737Z" fill="#41E45F"/>
</svg>
